<svg width="36" height="36" viewBox="0 0 36 36" fill="none" xmlns="http://www.w3.org/2000/svg">
<path d="M4 0C1.79 0 0 1.79 0 4V32C0 34.21 1.79 36 4 36H32C34.21 36 36 34.21 36 32V4C36 1.79 34.21 0 32 0H4ZM4 4H32V32H4V4ZM9.55859 6.63281C7.84459 6.63281 6.81641 7.66316 6.81641 9.03516C6.81641 10.4072 7.84472 11.4336 9.38672 11.4336C11.1007 11.4336 12.1289 10.4072 12.1289 9.03516C12.1289 7.66316 11.1006 6.63281 9.55859 6.63281ZM6.95312 14V28H12V14H6.95312ZM16.1641 14V28H21.2109V20.3477C21.2109 18.0697 22.8362 17.7422 23.3242 17.7422C23.8122 17.7422 25.1172 18.2317 25.1172 20.3477V28H30V20.3477C30 15.9537 28.0475 14 25.6055 14C23.1635 14 21.8609 14.8131 21.2109 15.9531V14H16.1641Z" fill="white"/>
</svg>
