<svg width="40" height="32" viewBox="0 0 40 32" fill="none" xmlns="http://www.w3.org/2000/svg">
<path d="M40 -0.000976562C38.44 0.925023 35.31 2.18702 33.47 2.55102C33.416 2.56502 33.372 2.58302 33.32 2.59702C31.694 0.993023 29.466 -0.000976562 27 -0.000976562C22.03 -0.000976562 18 4.02902 18 8.99902C18 9.26102 17.978 9.74302 18 9.99902C11.294 9.99902 6.19 6.48702 2.53 1.99902C2.132 2.99902 1.958 4.57902 1.958 6.06302C1.958 8.86502 4.148 11.617 7.558 13.323C6.93 13.485 6.238 13.601 5.518 13.601C4.356 13.601 3.126 13.295 2 12.367C2 12.401 2 12.433 2 12.469C2 16.385 6.156 19.051 9.852 19.793C9.102 20.235 7.59 20.279 6.852 20.279C6.332 20.279 4.492 20.041 4 19.949C5.028 23.159 8.736 24.963 12.27 25.027C9.506 27.195 7.588 27.999 1.928 27.999H0C3.576 30.291 8.13 32.001 12.694 32.001C27.554 32.001 36 20.675 36 9.99902C36 9.82702 35.996 9.46702 35.99 9.10502C35.99 9.06902 36 9.03502 36 8.99902C36 8.94502 35.984 8.89302 35.984 8.83902C35.978 8.56702 35.972 8.31302 35.966 8.18102C37.546 7.04102 38.916 5.61902 40 3.99902C38.55 4.64302 36.994 5.07502 35.36 5.27102C37.028 4.27102 39.398 1.88702 40 -0.000976562ZM32 9.99902C32 18.159 26.086 26.797 15.068 27.885C16.56 26.827 18 25.325 18 25.325C18 25.325 12 20.001 11.55 13.045C13.62 13.677 15.776 13.999 18 13.999H22V8.99902C22 8.99702 22 8.99702 22 8.99702C22.004 6.23702 24.24 4.00102 27 4.00102C29.762 4.00102 32 6.23902 32 9.00102C32 9.00102 32 9.84102 32 9.99902Z" fill="white"/>
</svg>
