<?xml version="1.0" encoding="UTF-8" standalone="no"?>
<svg
   height="514.41888"
   style="clip-rule:evenodd;fill-rule:evenodd;stroke-linejoin:round;stroke-miterlimit:2"
   version="1.1"
   viewBox="0 0 512.67456 514.41888"
   width="512.67456"
   xml:space="preserve"
   id="svg2104"
   sodipodi:docname="logo_twitter.svg"
   inkscape:version="1.1 (c68e22c387, 2021-05-23)"
   xmlns:inkscape="http://www.inkscape.org/namespaces/inkscape"
   xmlns:sodipodi="http://sodipodi.sourceforge.net/DTD/sodipodi-0.dtd"
   xmlns="http://www.w3.org/2000/svg"
   xmlns:svg="http://www.w3.org/2000/svg"><defs
     id="defs2108" /><sodipodi:namedview
     id="namedview2106"
     pagecolor="#505050"
     bordercolor="#ffffff"
     borderopacity="1"
     inkscape:pageshadow="0"
     inkscape:pageopacity="0"
     inkscape:pagecheckerboard="1"
     showgrid="false"
     fit-margin-top="0"
     fit-margin-left="0"
     fit-margin-right="0"
     fit-margin-bottom="0"
     inkscape:zoom="1.0482306"
     inkscape:cx="256.14594"
     inkscape:cy="318.1552"
     inkscape:window-width="1920"
     inkscape:window-height="1009"
     inkscape:window-x="-8"
     inkscape:window-y="-8"
     inkscape:window-maximized="1"
     inkscape:current-layer="svg2104" /><g
     id="g2485"
     transform="translate(5.2363834e-7,0.39515554)"><path
       d="M 449.446,0 C 483.971,0 512,28.03 512,62.554 V 449.446 C 512,483.97 483.97,512 449.446,512 H 62.554 C 28.03,512 0,483.97 0,449.446 V 62.554 C 0,28.03 28.029,0 62.554,0 Z M 195.519,424.544 c 135.939,0 210.268,-112.643 210.268,-210.268 0,-3.218 0,-6.437 -0.153,-9.502 14.406,-10.421 26.973,-23.448 36.935,-38.314 -13.18,5.824 -27.433,9.809 -42.452,11.648 15.326,-9.196 26.973,-23.602 32.49,-40.92 -14.252,8.429 -30.038,14.56 -46.896,17.931 -13.487,-14.406 -32.644,-23.295 -53.946,-23.295 -40.767,0 -73.87,33.104 -73.87,73.87 0,5.824 0.613,11.494 1.992,16.858 -61.456,-3.065 -115.862,-32.49 -152.337,-77.241 -6.284,10.881 -9.962,23.601 -9.962,37.088 0,25.594 13.027,48.276 32.95,61.456 -12.107,-0.307 -23.448,-3.678 -33.41,-9.196 v 0.92 c 0,35.862 25.441,65.594 59.311,72.49 -6.13,1.686 -12.72,2.606 -19.464,2.606 -4.751,0 -9.348,-0.46 -13.946,-1.38 9.349,29.426 36.628,50.728 68.965,51.341 -25.287,19.771 -57.164,31.571 -91.8,31.571 -5.977,0 -11.801,-0.306 -17.625,-1.073 32.337,21.15 71.264,33.41 112.95,33.41 z"
       id="path2102" /><rect
       style="fill:#000000;stroke:#cfc317;stroke-width:0;stroke-miterlimit:2;stroke-dasharray:none;paint-order:markers fill stroke"
       id="rect2212"
       width="119.39922"
       height="62.455761"
       x="1.0137006e-08"
       y="-0.39515504" /><rect
       style="fill:#000000;stroke:#cfc317;stroke-width:0;stroke-miterlimit:2;stroke-dasharray:none;paint-order:markers fill stroke"
       id="rect2214"
       width="63.228573"
       height="49.24374"
       x="449.44601"
       y="0" /><rect
       style="fill:#000000;stroke:#cfc317;stroke-width:0;stroke-miterlimit:2;stroke-dasharray:none;paint-order:markers fill stroke"
       id="rect2216"
       width="70.83004"
       height="70.155464"
       x="-2.3638345e-08"
       y="443.19366" /><rect
       style="fill:#000000;stroke:#cfc317;stroke-width:0;stroke-miterlimit:2;stroke-dasharray:none;paint-order:markers fill stroke"
       id="rect2218"
       width="62.060604"
       height="64.758896"
       x="449.93939"
       y="448.59024" /><rect
       style="fill:#000000;stroke:#cfc317;stroke-width:0;stroke-miterlimit:2;stroke-dasharray:none;paint-order:markers fill stroke"
       id="rect2394"
       width="410.13965"
       height="21.586298"
       x="41.823452"
       y="492.43741" /><rect
       style="fill:#000000;stroke:#cfc317;stroke-width:0;stroke-miterlimit:2;stroke-dasharray:none;paint-order:markers fill stroke"
       id="rect2396"
       width="17.538868"
       height="470.17654"
       x="495.13571"
       y="42.498024" /></g></svg>
