<?xml version="1.0" encoding="UTF-8" standalone="no"?>
<svg
   height="517.43958"
   style="clip-rule:evenodd;fill-rule:evenodd;stroke-linejoin:round;stroke-miterlimit:2"
   version="1.1"
   viewBox="0 0 513.35992 517.43958"
   width="513.35992"
   xml:space="preserve"
   id="svg4"
   sodipodi:docname="logo_linkedin.svg"
   inkscape:version="1.1 (c68e22c387, 2021-05-23)"
   xmlns:inkscape="http://www.inkscape.org/namespaces/inkscape"
   xmlns:sodipodi="http://sodipodi.sourceforge.net/DTD/sodipodi-0.dtd"
   xmlns="http://www.w3.org/2000/svg"
   xmlns:svg="http://www.w3.org/2000/svg"><defs
     id="defs8" /><sodipodi:namedview
     id="namedview6"
     pagecolor="#505050"
     bordercolor="#ffffff"
     borderopacity="1"
     inkscape:pageshadow="0"
     inkscape:pageopacity="0"
     inkscape:pagecheckerboard="1"
     showgrid="false"
     inkscape:zoom="1.0399442"
     inkscape:cx="157.21998"
     inkscape:cy="260.11012"
     inkscape:window-width="1920"
     inkscape:window-height="1009"
     inkscape:window-x="-8"
     inkscape:window-y="-8"
     inkscape:window-maximized="1"
     inkscape:current-layer="svg4"
     fit-margin-top="0"
     fit-margin-left="0"
     fit-margin-right="0"
     fit-margin-bottom="0" /><g
     id="g1610"
     transform="translate(0.67994817,4.0796819)"><path
       d="M 449.446,0 C 483.971,0 512,28.03 512,62.554 V 449.446 C 512,483.97 483.97,512 449.446,512 H 62.554 C 28.03,512 0,483.97 0,449.446 V 62.554 C 0,28.03 28.029,0 62.554,0 Z M 160.461,423.278 V 197.561 h -75.04 v 225.717 z m 270.539,0 V 293.839 c 0,-69.333 -37.018,-101.586 -86.381,-101.586 -39.804,0 -57.634,21.891 -67.617,37.266 v -31.958 h -75.021 c 0.995,21.181 0,225.717 0,225.717 h 75.02 V 297.222 c 0,-6.748 0.486,-13.492 2.474,-18.315 5.414,-13.475 17.767,-27.434 38.494,-27.434 27.135,0 38.007,20.707 38.007,51.037 V 423.278 Z M 123.448,88.722 C 97.774,88.722 81,105.601 81,127.724 c 0,21.658 16.264,39.002 41.455,39.002 h 0.484 c 26.165,0 42.452,-17.344 42.452,-39.002 C 164.906,105.632 149.15,88.77 123.448,88.722 Z"
       id="path2" /><rect
       style="fill:#000000;stroke:#cfc317;stroke-width:0;stroke-miterlimit:2;stroke-dasharray:none;paint-order:markers fill stroke"
       id="rect562"
       width="512.67993"
       height="62.555115"
       x="-5.9106048e-07"
       y="-4.0796814" /><rect
       style="fill:#000000;stroke:#cfc317;stroke-width:0;stroke-miterlimit:2;stroke-dasharray:none;paint-order:markers fill stroke"
       id="rect1525"
       width="513.35992"
       height="71.394424"
       x="-0.67994767"
       y="441.96548" /></g></svg>
